<svg width="48" height="48" viewBox="0 0 48 48" fill="none" xmlns="http://www.w3.org/2000/svg">
<rect width="48" height="48" rx="24" fill="#00091D"/>
<g clip-path="url(#clip0_2195_383)">
<path d="M13.7998 23.7662C13.7998 23.5407 13.8894 23.3245 14.0488 23.1651C14.2082 23.0057 14.4244 22.9162 14.6498 22.9162H31.1221L26.6221 18.418C26.5431 18.3389 26.4804 18.2451 26.4377 18.1419C26.3949 18.0386 26.3729 17.9279 26.3729 17.8162C26.3729 17.7044 26.3949 17.5937 26.4377 17.4905C26.4804 17.3872 26.5431 17.2934 26.6221 17.2144C26.7012 17.1353 26.795 17.0726 26.8983 17.0299C27.0015 16.9871 27.1122 16.9651 27.2239 16.9651C27.3357 16.9651 27.4464 16.9871 27.5496 17.0299C27.6529 17.0726 27.7467 17.1353 27.8257 17.2144L33.7758 23.1644C33.8549 23.2433 33.9177 23.3371 33.9606 23.4404C34.0034 23.5437 34.0255 23.6544 34.0255 23.7662C34.0255 23.878 34.0034 23.9887 33.9606 24.0919C33.9177 24.1952 33.8549 24.289 33.7758 24.368L27.8257 30.318C27.6661 30.4776 27.4497 30.5672 27.2239 30.5672C26.9982 30.5672 26.7818 30.4776 26.6221 30.318C26.4625 30.1584 26.3729 29.9419 26.3729 29.7162C26.3729 29.4904 26.4625 29.274 26.6221 29.1144L31.1221 24.6162H14.6498C14.4244 24.6162 14.2082 24.5266 14.0488 24.3672C13.8894 24.2078 13.7998 23.9916 13.7998 23.7662Z" fill="white"/>
</g>
<defs>
<clipPath id="clip0_2195_383">
<rect width="20.4" height="15.4759" fill="white" transform="translate(13.7998 16.262)"/>
</clipPath>
</defs>
</svg>
