<svg width="64" height="64" viewBox="0 0 64 64" fill="none" xmlns="http://www.w3.org/2000/svg">
<rect x="4" y="-4" width="56" height="56" rx="28" transform="matrix(-1 0 0 1 64 8)" fill="#00091D"/>
<rect x="4" y="-4" width="56" height="56" rx="28" transform="matrix(-1 0 0 1 64 8)" stroke="#F2FBF1" stroke-width="8"/>
<g clip-path="url(#clip0_2195_380)">
<path d="M42.2002 31.7662C42.2002 31.5407 42.1106 31.3245 41.9512 31.1651C41.7918 31.0057 41.5756 30.9162 41.3502 30.9162H24.8779L29.3779 26.418C29.4569 26.3389 29.5196 26.2451 29.5623 26.1419C29.6051 26.0386 29.6271 25.9279 29.6271 25.8162C29.6271 25.7044 29.6051 25.5937 29.5623 25.4905C29.5196 25.3872 29.4569 25.2934 29.3779 25.2144C29.2988 25.1353 29.205 25.0726 29.1017 25.0299C28.9985 24.9871 28.8878 24.9651 28.7761 24.9651C28.6643 24.9651 28.5536 24.9871 28.4504 25.0299C28.3471 25.0726 28.2533 25.1353 28.1743 25.2144L22.2242 31.1644C22.1451 31.2433 22.0823 31.3371 22.0394 31.4404C21.9966 31.5437 21.9745 31.6544 21.9745 31.7662C21.9745 31.878 21.9966 31.9887 22.0394 32.0919C22.0823 32.1952 22.1451 32.289 22.2242 32.368L28.1743 38.318C28.3339 38.4776 28.5503 38.5672 28.7761 38.5672C29.0018 38.5672 29.2182 38.4776 29.3779 38.318C29.5375 38.1584 29.6271 37.9419 29.6271 37.7162C29.6271 37.4904 29.5375 37.274 29.3779 37.1144L24.8779 32.6162H41.3502C41.5756 32.6162 41.7918 32.5266 41.9512 32.3672C42.1106 32.2078 42.2002 31.9916 42.2002 31.7662Z" fill="white"/>
</g>
<defs>
<clipPath id="clip0_2195_380">
<rect width="20.4" height="15.4759" fill="white" transform="matrix(-1 0 0 1 42.2002 24.262)"/>
</clipPath>
</defs>
</svg>
